<svg width="74" height="52" viewBox="0 0 74 52" fill="none" xmlns="http://www.w3.org/2000/svg">
<path d="M11.5372 40.0984C11.5372 46.1563 16.4482 51.0673 22.5063 51.0673C28.5642 51.0673 33.4751 46.1563 33.4751 40.0984C33.4751 34.0403 28.5642 29.1296 22.5063 29.1296C16.4482 29.1296 11.5372 34.0403 11.5372 40.0984Z" stroke="#72A3DD" stroke-miterlimit="10" stroke-linecap="round" stroke-linejoin="round"/>
<path d="M17.0216 40.0983C17.0216 43.1274 19.477 45.5828 22.5061 45.5828C25.5349 45.5828 27.9905 43.1274 27.9905 40.0983C27.9905 37.0693 25.5349 34.6139 22.5061 34.6139C19.477 34.6139 17.0216 37.0693 17.0216 40.0983Z" stroke="#72A3DD" stroke-miterlimit="10" stroke-linecap="round" stroke-linejoin="round"/>
<path d="M3.13918 37.3867H11.8755C11.6503 38.273 11.5366 39.184 11.537 40.0984C11.537 41.082 11.6687 42.0348 11.9114 42.9419H3.13918C2.08395 42.9419 1.22864 42.0866 1.22864 41.0316V39.2972C1.22864 38.242 2.08395 37.3867 3.13918 37.3867Z" stroke="#72A3DD" stroke-miterlimit="10" stroke-linecap="round" stroke-linejoin="round"/>
<path d="M10.4746 22.2036C10.6455 22.5724 10.7343 22.9739 10.7349 23.3803V28.1176C10.7349 29.6784 9.45768 30.9553 7.89697 30.9553H3.22423C3.32324 26.7177 6.31829 23.0915 10.4746 22.2036Z" stroke="#72A3DD" stroke-miterlimit="10" stroke-linecap="round" stroke-linejoin="round"/>
<path d="M81.49 8.23417L79.1208 22.2036H59.7238V7.016C65.7655 6.42349 73.3304 6.43932 81.49 8.23417Z" stroke="#72A3DD" stroke-miterlimit="10" stroke-linecap="round" stroke-linejoin="round"/>
<path d="M54.958 28.2755H52.9483" stroke="#72A3DD" stroke-miterlimit="10" stroke-linecap="round" stroke-linejoin="round"/>
<path d="M75.0559 28.2755H73.0462" stroke="#72A3DD" stroke-miterlimit="10" stroke-linecap="round" stroke-linejoin="round"/>
<path d="M35.9125 20.7316V19.3845L45.5065 11.1225C47.0058 9.83102 48.8094 8.91542 50.7232 8.47451C57.9856 6.80025 72.5159 4.78537 88.2357 10.1054C90.8698 10.997 93.1439 12.7692 94.6379 15.0952C94.8763 15.4664 94.8006 15.9586 94.4676 16.2486L87.8848 21.9832C87.7216 22.1253 87.5124 22.2036 87.2959 22.2036H35.4804C35.7621 21.7643 35.9121 21.2535 35.9125 20.7316Z" stroke="#72A3DD" stroke-miterlimit="10" stroke-linecap="round" stroke-linejoin="round"/>
<path d="M30.7465 15.5659H33.1561C34.672 15.5659 35.9124 16.8063 35.9124 18.3223V20.7317C35.9124 22.2477 34.672 23.4879 33.1561 23.4879H30.7465C29.2305 23.4879 27.9901 22.2477 27.9901 20.7317V18.3223C27.9901 16.8063 29.2305 15.5659 30.7465 15.5659Z" stroke="#72A3DD" stroke-miterlimit="10" stroke-linecap="round" stroke-linejoin="round"/>
<path d="M55.9821 42.9419H33.1004C33.349 42.0145 33.4749 41.0584 33.4748 40.0982C33.4748 39.1623 33.3568 38.254 33.1363 37.3867H80.2351C80.0099 38.273 79.8962 39.1838 79.8966 40.0982C79.8966 41.082 80.0281 42.0348 80.271 42.9419H63.466" stroke="#72A3DD" stroke-miterlimit="10" stroke-linecap="round" stroke-linejoin="round"/>
<path d="M42.6198 6.07536C44.639 4.53948 46.9615 3.44995 49.4333 2.87888C56.9981 1.1347 72.8815 -1.15366 90.0767 4.66603C93.942 5.97422 97.254 8.54868 99.4621 11.9802L104.905 20.4382C106.074 22.2559 106.696 24.3717 106.696 26.5331V31.8208C106.696 32.8218 106.563 33.8182 106.3 34.7838L105.59 37.3867H101.496C100.289 32.6404 95.9875 29.1294 90.8657 29.1294C85.7437 29.1294 81.4424 32.6404 80.2351 37.3867H33.1364C31.9293 32.6404 27.628 29.1294 22.506 29.1294C17.3841 29.1294 13.0827 32.6404 11.8757 37.3867H3.21961V31.171C3.21961 26.8124 6.28716 23.0561 10.5579 22.1848L26.4682 18.9391C26.9976 18.8303 27.5097 18.65 27.9905 18.4033V20.7316C27.9905 22.2476 29.2309 23.488 30.7469 23.488H33.1563C34.6723 23.488 35.9127 22.2476 35.9127 20.7316V18.3222C35.9127 16.8064 34.6723 15.566 33.1563 15.566H31.5468L36.9096 10.9478" stroke="#72A3DD" stroke-miterlimit="10" stroke-linecap="round" stroke-linejoin="round"/>
</svg>
