<svg width="42" height="37" viewBox="0 0 42 37" fill="none" xmlns="http://www.w3.org/2000/svg">
<g clip-path="url(#clip0_8_4985)">
<path d="M21.4948 11.3584C21.4941 11.7214 21.6392 12.0695 21.8977 12.3263C22.1562 12.583 22.5068 12.7275 22.8725 12.7287H22.873C23.6351 12.7287 24.259 12.1167 24.259 11.3587C24.259 10.6047 23.6343 9.99575 22.873 9.99575C22.1147 9.99575 21.4949 10.6055 21.4948 11.3584ZM21.4948 11.3584L21.6448 11.3587H21.4948C21.4948 11.3586 21.4948 11.3585 21.4948 11.3584ZM24.7504 13.2114C24.2532 13.7026 23.5789 13.9794 22.8751 13.9805C22.1858 13.9602 21.5317 13.6747 21.0515 13.1863C20.571 12.6974 20.3025 12.043 20.3025 11.3622C20.3025 10.6814 20.571 10.027 21.0515 9.53816C21.5317 9.04974 22.1857 8.76495 22.8751 8.74465C23.5779 8.74501 24.2516 9.0205 24.7487 9.51033C25.2463 10.0006 25.5266 10.6654 25.5286 11.359C25.5277 12.0535 25.2481 12.7197 24.7504 13.2114ZM3.3207 22.3429C3.3207 23.7878 2.13071 24.9663 0.66509 24.9663C-0.800642 24.9663 -1.99209 23.7877 -1.99209 22.3429C-1.99209 20.898 -0.802129 19.7195 0.664306 19.7195C2.13074 19.7195 3.3207 20.898 3.3207 22.3429ZM2.05113 22.3429C2.05113 21.5845 1.42751 20.9706 0.66509 20.9706C-0.0979285 20.9706 -0.722517 21.5843 -0.722517 22.3429C-0.722517 23.1013 -0.0988374 23.7152 0.664306 23.7152C1.42739 23.7152 2.05113 23.1022 2.05113 22.3429ZM17.1902 22.3429C17.1902 23.7878 16.0003 24.9663 14.5338 24.9663C13.0674 24.9663 11.8774 23.7878 11.8774 22.3429C11.8774 20.898 13.0674 19.7195 14.5338 19.7195C16.0003 19.7195 17.1902 20.898 17.1902 22.3429ZM15.9207 22.3429C15.9207 21.5845 15.2978 20.9706 14.5338 20.9706C13.7707 20.9706 13.147 21.5844 13.147 22.3429C13.147 23.1013 13.7707 23.7152 14.5338 23.7152C15.2969 23.7152 15.9207 23.1022 15.9207 22.3429ZM10.9536 4.88951H4.19663C4.0277 4.88951 3.86605 4.82318 3.74714 4.70566C3.62828 4.58821 3.56184 4.42929 3.56184 4.26396C3.56184 4.09863 3.62828 3.9397 3.74714 3.82225C3.86605 3.70474 4.0277 3.6384 4.19663 3.6384H10.9536C11.1226 3.6384 11.2842 3.70474 11.4031 3.82225C11.522 3.9397 11.5884 4.09863 11.5884 4.26396C11.5884 4.42929 11.522 4.58821 11.4031 4.70566C11.2842 4.82318 11.1226 4.88951 10.9536 4.88951Z" fill="#72A3DD" stroke="white" stroke-width="0.3"/>
<path d="M20.3474 19.5472C21.1323 20.6766 21.7521 21.51 22.365 22.2754M20.3474 19.5472L29.4665 12.0963L29.4587 12.1452M20.3474 19.5472V19.3307H20.1974L20.074 19.4159C20.1156 19.4761 20.1567 19.5356 20.1974 19.5942L20.3474 19.5472ZM22.365 22.2754C22.4385 22.3666 22.5318 22.4403 22.6381 22.4909M22.365 22.2754L22.4821 22.1817M22.365 22.2754L22.4818 22.1813C22.4819 22.1814 22.482 22.1816 22.4821 22.1817M22.6381 22.4909C22.7443 22.5415 22.8607 22.5678 22.9787 22.5678M22.6381 22.4909L22.7026 22.3555C22.7886 22.3965 22.883 22.4178 22.9787 22.4178V22.5678M22.6381 22.4909L22.7026 22.3555C22.6167 22.3145 22.5413 22.2551 22.4821 22.1817M22.9787 22.5678H22.9818M22.9787 22.5678L22.9787 22.4178H22.9812M22.9818 22.5678C23.1004 22.5673 23.2173 22.5403 23.3237 22.4887C23.4301 22.4371 23.5233 22.3623 23.5963 22.27C25.3636 20.0674 28.9172 15.0108 29.4587 12.1452M22.9818 22.5678V22.4178H22.9812M22.9818 22.5678L22.9812 22.4178M29.4587 12.1452L29.3106 12.1214L29.3109 12.1193M29.4587 12.1452L29.3113 12.1173L29.3184 12.0725L29.3194 12.0663L29.3195 12.0664C29.9606 8.9183 27.1257 5.0166 22.9787 5.0166C22.0123 5.0166 21.0821 5.23028 20.2275 5.63209L20.0422 5.71919L20.015 5.5163C19.9536 5.05924 19.7908 4.62113 19.5379 4.23336C19.2851 3.84564 18.9486 3.5178 18.5524 3.27342M29.3109 12.1193L18.5524 3.27342M29.3109 12.1193C29.0453 13.5218 28.0362 15.4803 26.8597 17.3772C25.6862 19.2692 24.3596 21.0791 23.4793 22.1761L23.4786 22.177C23.4198 22.2515 23.3444 22.3119 23.2583 22.3537C23.1721 22.3955 23.0773 22.4174 22.9812 22.4178M29.3109 12.1193L-3.62635 36.6837L-2.59672 34.1562L-2.55867 34.0628H-2.45781H17.8839H17.9847L18.0228 34.1562L19.0524 36.6837L18.9135 36.7403M18.5524 3.27342C16.2313 1.84615 12.4506 0.15 7.59216 0.15H7.52413M18.5524 3.27342L7.52413 0.15M7.52413 0.15C2.69788 0.165453 -1.05543 1.85693 -3.35462 3.27336C-3.81563 3.55804 -4.19496 3.95456 -4.45661 4.42494C-4.71828 4.89535 -4.85358 5.42404 -4.84973 5.9606L-4.84973 5.96168L-4.84973 22.9424C-4.84973 25.0919 -3.41749 26.9184 -1.44367 27.5379L-1.2882 27.5867L-1.34968 27.7376L-4.80431 36.2168C-4.86685 36.3703 -4.86513 36.542 -4.79951 36.6943C-4.73375 36.8469 -4.60915 36.9684 -4.45301 37.0306C-4.453 37.0306 -4.45299 37.0306 -4.45297 37.0306L7.52413 0.15ZM22.4821 22.1817C21.8335 21.3716 21.1764 20.4842 20.3208 19.2454L20.0474 18.8495V19.3307V22.9424C20.0474 25.0203 18.7074 26.7917 16.8347 27.467L16.6877 27.52L16.7467 27.6647L20.2311 36.2175C20.2621 36.2936 20.2776 36.375 20.2768 36.4569C20.276 36.5388 20.2588 36.6198 20.2263 36.6953C20.1937 36.7708 20.1464 36.8393 20.0869 36.8969L20.1913 37.0047M20.1913 37.0047L20.0869 36.897C20.0274 36.9546 19.957 37.0001 19.8795 37.031C19.802 37.0618 19.719 37.0772 19.6354 37.0764C19.5517 37.0756 19.4691 37.0585 19.3923 37.0261L19.3341 37.1644M20.1913 37.0047C20.1177 37.076 20.0305 37.1323 19.9349 37.1703C19.8393 37.2084 19.737 37.2274 19.6339 37.2264C19.5308 37.2254 19.4289 37.2043 19.3341 37.1644M20.1913 37.0047C20.2649 36.9334 20.3236 36.8484 20.364 36.7547C20.4044 36.661 20.4258 36.5603 20.4268 36.4584C20.4278 36.3565 20.4085 36.2555 20.3701 36.1609L17.8839 34.2128L18.9135 36.7403M19.3341 37.1644L19.3923 37.0261C19.3154 36.9938 19.2459 36.9468 19.1876 36.888C19.1293 36.8293 19.0834 36.7598 19.0524 36.6837L18.9135 36.7403M19.3341 37.1644C19.2392 37.1244 19.1533 37.0664 19.0811 36.9937C19.0089 36.9209 18.952 36.8348 18.9135 36.7403M-1.96419 32.6051L-2.04834 32.8117H-1.82527H17.2521H17.4752L17.391 32.6051L16.793 31.1369L16.755 31.0435H16.6541H-1.22726H-1.32813L-1.36618 31.1369L-1.96419 32.6051ZM16.0223 29.7924H16.2455L16.1612 29.5858L15.4534 27.8493L15.414 27.7528L15.3098 27.756C15.2863 27.7568 15.263 27.7583 15.2426 27.7596L15.2315 27.7603C15.2076 27.7619 15.1873 27.7629 15.1677 27.7629H0.109228H0.00837517L-0.0296826 27.8563L-0.734421 29.5858L-0.818608 29.7924H-0.59551H16.0223ZM-3.58016 14.7316V14.8816H-3.43016H6.79011H6.94011V14.7316V8.20613V8.05613H6.79011H-3.43016H-3.58016V8.20613V14.7316ZM8.35968 8.05613H8.20969V8.20613V14.7316V14.8816H8.35968H17.4232H17.6628L17.5581 14.6661C17.0881 13.6982 16.5459 12.3866 16.5459 11.3557C16.5459 10.3005 16.8103 9.28324 17.372 8.27937L17.4969 8.05613H17.2411H8.35968ZM28.058 11.9145C28.0599 11.8947 28.0629 11.8749 28.0669 11.8553L28.067 11.8553C28.3254 10.6725 27.8835 9.27522 26.9731 8.17977C26.0598 7.08079 24.6611 6.2677 22.9787 6.2677C20.1044 6.2677 17.8155 8.59016 17.8155 11.3557C17.8155 11.9502 18.0552 12.716 18.4208 13.544C18.7884 14.3767 19.2914 15.29 19.8348 16.1856C20.9218 17.977 22.1774 19.7091 22.8552 20.6032L22.9752 20.7615L23.0946 20.6028C23.8445 19.6064 24.9605 18.0532 25.95 16.4452C26.936 14.843 27.8091 13.1665 28.0558 11.9294L28.0573 11.922L28.058 11.9145ZM-2.68168 4.33483L-2.68175 4.33487C-3.24491 4.68228 -3.58016 5.29107 -3.58016 5.96168V6.65502V6.80502H-3.43016H18.4473H18.5063L18.5494 6.76492C18.5663 6.74925 18.5841 6.73397 18.6045 6.71672L18.609 6.71284C18.6272 6.69744 18.6474 6.68024 18.6674 6.66217C18.6832 6.64816 18.6972 6.63336 18.7056 6.62465C18.7159 6.61397 18.7207 6.60932 18.7244 6.60613L18.7778 6.56118V6.49138V5.96243C18.7812 5.63796 18.7006 5.3181 18.5436 5.03333C18.3865 4.74831 18.1582 4.50802 17.8808 4.33521L17.8801 4.33478C11.538 0.432889 3.6827 0.413268 -2.68168 4.33483ZM-3.43016 16.132H-3.58016V16.282V22.7916H-3.58094V22.9416C-3.58094 24.8219 -2.10054 26.3469 -0.239336 26.4851L-0.239367 26.4855H-0.22823H15.4259V26.4859L15.437 26.4851C17.2974 26.3469 18.7778 24.8219 18.7778 22.9424V16.9241V16.8824L18.7562 16.8466C18.6842 16.7272 18.6201 16.6156 18.5551 16.5024C18.518 16.4376 18.4805 16.3723 18.4411 16.3048L18.4408 16.3043L18.3827 16.2058L18.3392 16.132H18.2535H-3.43016Z" fill="#72A3DD" stroke="white" stroke-width="0.3"/>
</g>
<defs>
<clipPath id="clip0_8_4985">
<rect width="51" height="39" fill="white" transform="translate(-9 -1)"/>
</clipPath>
</defs>
</svg>
