<svg width="45" height="80" viewBox="0 0 45 80" fill="none" xmlns="http://www.w3.org/2000/svg">
<g clip-path="url(#clip0_8_4551)">
<path d="M58.7026 25.8798C58.7011 26.6422 59.006 27.3728 59.5483 27.9114C60.0904 28.4499 60.8253 28.7526 61.5914 28.7551H61.593C63.1885 28.7551 64.4986 27.4734 64.4986 25.8807C64.4986 24.2946 63.186 23.02 61.593 23.02C60.0048 23.02 58.7031 24.2972 58.7026 25.8798ZM58.7026 25.8798L59.2026 25.8807H58.7026C58.7026 25.8804 58.7026 25.8801 58.7026 25.8798ZM65.1008 29.3384C64.1729 30.2552 62.9143 30.7724 61.5999 30.7754C60.313 30.7366 59.0924 30.2033 58.1964 29.2918C57.2991 28.3789 56.7982 27.1577 56.7982 25.8875C56.7982 24.6174 57.2991 23.3961 58.1964 22.4833C59.0922 21.572 60.3128 21.0398 61.6002 21.0011C62.9126 21.0026 64.1699 21.5174 65.0977 22.4315C66.0266 23.3466 66.5494 24.5871 66.5534 25.8807C66.5518 27.1767 66.0301 28.4203 65.1008 29.3384ZM23.331 47.2588C23.331 49.9538 21.1104 52.1566 18.3705 52.1566C15.6303 52.1566 13.407 49.9535 13.407 47.2588C13.407 44.5639 15.6275 42.3611 18.369 42.3611C21.1105 42.3611 23.331 44.5639 23.331 47.2588ZM21.2762 47.2588C21.2762 45.6656 19.967 44.38 18.3705 44.38C16.7731 44.38 15.4618 45.665 15.4618 47.2588C15.4618 48.8522 16.7711 50.1377 18.369 50.1377C19.9666 50.1377 21.2762 48.854 21.2762 47.2588ZM50.3248 47.2588C50.3248 49.9537 48.1043 52.1566 45.3628 52.1566C42.6213 52.1566 40.4008 49.9537 40.4008 47.2588C40.4008 44.5639 42.6213 42.3611 45.3628 42.3611C48.1043 42.3611 50.3248 44.5639 50.3248 47.2588ZM48.27 47.2588C48.27 45.6656 46.9624 44.38 45.3628 44.38C43.7649 44.38 42.4556 45.6654 42.4556 47.2588C42.4556 48.8522 43.7649 50.1377 45.3628 50.1377C46.9604 50.1377 48.27 48.854 48.27 47.2588ZM38.3948 13.0819H25.2438C24.9694 13.0819 24.7075 12.9741 24.5152 12.7841C24.3232 12.5943 24.2164 12.3382 24.2164 12.0724C24.2164 11.8066 24.3232 11.5505 24.5152 11.3607C24.7075 11.1708 24.9694 11.063 25.2438 11.063H38.3948C38.6691 11.063 38.9311 11.1708 39.1233 11.3607C39.3154 11.5505 39.4222 11.8066 39.4222 12.0724C39.4222 12.3382 39.3154 12.5943 39.1233 12.7841C38.9311 12.9741 38.6691 13.0819 38.3948 13.0819Z" fill="#72A3DD" stroke="white"/>
<path d="M56.8861 42.1163C58.3162 44.1641 59.4667 45.706 60.6048 47.1275M56.8861 42.1163L74.4262 27.3162L74.411 27.4113M56.8861 42.1163V41.3962H56.3861L55.9747 41.6803C56.1144 41.8827 56.2515 42.0803 56.3861 42.2734V48.4256C56.3861 52.4244 53.9155 55.8537 50.4064 57.3248L50.4035 57.3177L49.9404 57.5064L50.1101 57.9767C50.1165 57.9744 50.1228 57.9721 50.1292 57.9698L56.7221 74.1524M56.8861 42.1163L8.30189 76.1162C8.67762 76.2657 9.09804 76.2615 9.47069 76.1047M60.6048 47.1275C60.7478 47.305 60.9295 47.4483 61.1362 47.5468C61.343 47.6453 61.5696 47.6965 61.7992 47.6966M60.6048 47.1275L60.9951 46.815C60.995 46.8149 60.9949 46.8148 60.9948 46.8146M60.6048 47.1275L60.9941 46.8138C60.9943 46.814 60.9945 46.8143 60.9948 46.8146M61.7992 47.6966H61.8053M61.7992 47.6966L61.7993 47.1966L61.8032 47.1966L61.8053 47.6966M61.7992 47.6966V47.1966C61.6439 47.1965 61.4908 47.1619 61.3513 47.0954C61.2122 47.0291 61.0904 46.933 60.9948 46.8146M61.8053 47.6966C62.036 47.6956 62.2635 47.6429 62.4707 47.5425C62.6778 47.4421 62.8592 47.2966 63.0013 47.117C66.441 42.8302 73.3571 32.9887 74.411 27.4113M61.8053 47.6966V47.1966H61.804C61.9598 47.1958 62.1132 47.1602 62.2526 47.0926C62.3922 47.0249 62.514 46.9271 62.609 46.8069L62.6113 46.804C64.3199 44.6747 66.8969 41.159 69.1759 37.4845C71.4649 33.7939 73.4084 30.0128 73.9184 27.3253M74.411 27.4113L73.9197 27.3185C73.9192 27.3207 73.9188 27.323 73.9184 27.3253M74.411 27.4113L73.9173 27.332L73.9184 27.3253M73.9184 27.3253L73.9326 27.2369L73.9342 27.2266L73.9363 27.2164C75.1566 21.2238 69.7443 13.7453 61.7992 13.7453C59.9494 13.7453 58.1692 14.1542 56.5331 14.9234L55.9156 15.2137L55.8249 14.5374C55.7096 13.6786 55.4036 12.8553 54.9283 12.1264C54.4531 11.3976 53.8204 10.7811 53.0751 10.3215C48.5797 7.55732 41.2591 4.27356 31.8529 4.27356H31.7208C22.3771 4.30355 15.1098 7.57824 10.657 10.3213C9.78977 10.8569 9.07649 11.6025 8.58461 12.4868C8.09274 13.3711 7.83849 14.3647 7.84573 15.373L7.84575 15.3766L7.84574 48.4256C7.84574 52.514 10.5701 55.9913 14.3291 57.1712L14.8473 57.3339L14.6424 57.8369L7.91875 74.3396M60.9948 46.8146C59.7363 45.2428 58.4604 43.5199 56.7975 41.1121L55.8861 39.7924V41.3962V48.4256C55.8861 52.3774 53.3376 55.7497 49.7708 57.036L49.2809 57.2127L49.4774 57.695L56.259 74.341M56.259 74.341C56.309 74.4636 56.3339 74.5945 56.3326 74.7263C56.3312 74.8581 56.3036 74.9885 56.2512 75.1101L56.7104 75.308M56.259 74.341L56.2591 74.3411L56.7221 74.1524M56.259 74.341L56.7221 74.1524M56.7104 75.308L56.2512 75.1101C56.1988 75.2317 56.1225 75.3423 56.0263 75.4354C55.9301 75.5286 55.8161 75.6024 55.6904 75.6524C55.5647 75.7023 55.4301 75.7274 55.2943 75.7261C55.1585 75.7248 55.0244 75.697 54.8998 75.6445C54.7752 75.592 54.6627 75.516 54.5685 75.421C54.4743 75.326 54.4002 75.214 54.3503 75.0914L53.8873 75.28M56.7104 75.308C56.6317 75.4905 56.5175 75.6558 56.3742 75.7946C56.2309 75.9334 56.0613 76.0429 55.8752 76.117C55.689 76.191 55.49 76.2281 55.2893 76.2261C55.0887 76.2241 54.8904 76.1831 54.7058 76.1053C54.5212 76.0276 54.3539 75.9147 54.2135 75.7731C54.073 75.6315 53.9622 75.4639 53.8873 75.28M56.7104 75.308C56.789 75.1256 56.8305 74.9297 56.8325 74.7314C56.8346 74.5331 56.797 74.3364 56.7221 74.1524M53.8873 75.28L54.3503 75.0913L52.3463 70.1721L52.2195 69.8607H51.8833H12.293H11.9568L11.8299 70.1721L9.82603 75.0912L10.289 75.28M53.8873 75.28L51.8833 70.3607H12.293L10.289 75.28M10.289 75.28L9.82599 75.0913C9.72517 75.3386 9.5283 75.538 9.27676 75.6439L9.47069 76.1047M10.289 75.28C10.1377 75.6512 9.84334 75.9479 9.47069 76.1047M9.47069 76.1047L9.27675 75.6439C9.02501 75.7498 8.74061 75.7526 8.48671 75.6516C8.23398 75.5509 8.03261 75.3543 7.92651 75.1081C7.82086 74.8629 7.81809 74.5867 7.91875 74.3396M7.91875 74.3396L7.45571 74.1509L7.91875 74.3396ZM13.061 67.1532L12.7805 67.8419H13.5241H50.6537H51.3973L51.1168 67.1532L49.9529 64.2959L49.8261 63.9845H49.4899H14.688H14.3517L14.2249 64.2959L13.061 67.1532ZM48.2603 61.9656H49.0041L48.7233 61.2769L47.3456 57.8973L47.2144 57.5754L46.8669 57.5863C46.8084 57.5881 46.7498 57.5923 46.7079 57.5949C46.6619 57.5979 46.628 57.5996 46.597 57.5996H17.2891H16.953L16.8261 57.9109L15.4545 61.277L15.1739 61.9656H15.9175H48.2603ZM9.90055 32.4453V32.9453H10.4005H30.2919H30.7919V32.4453V19.7449V19.2449H30.2919H10.4005H9.90055V19.7449V32.4453ZM33.3467 19.2449H32.8467V19.7449V32.4453V32.9453H33.3467H50.9867H51.7854L51.4365 32.2268C50.5206 30.3409 49.4873 27.8278 49.4873 25.8747C49.4873 23.8581 49.9921 21.9131 51.0687 19.989L51.4851 19.2449H50.6324H33.3467ZM71.892 26.9825C71.895 26.952 71.8995 26.9216 71.9055 26.8915L71.9057 26.8916C72.4256 24.5112 71.535 21.7282 69.7335 19.5606C67.9223 17.3812 65.1441 15.7641 61.7992 15.7641C56.0912 15.7641 51.5421 20.3763 51.5421 25.8747C51.5421 27.0776 52.0243 28.6012 52.738 30.2179C53.4585 31.8498 54.4425 33.6359 55.5025 35.3829C57.6231 38.878 60.0716 42.2553 61.3931 43.9986L61.793 44.5261L62.1911 43.9972C63.6527 42.0551 65.8289 39.0264 67.7594 35.8894C69.6781 32.7714 71.3964 29.4802 71.8847 27.0321L71.8896 27.0075L71.892 26.9825ZM11.7481 12.0332L11.7479 12.0333C10.5892 12.7481 9.90055 14.0007 9.90055 15.3766V16.726V17.226H10.4005H52.98H53.1764L53.3203 17.0923C53.3493 17.0654 53.3808 17.0384 53.4205 17.0047L53.4296 16.997C53.4643 16.9675 53.506 16.9321 53.5472 16.8947C53.5852 16.8611 53.618 16.8263 53.6325 16.8113C53.644 16.7994 53.6497 16.7936 53.6523 16.7911C53.6534 16.79 53.6539 16.7896 53.6539 16.7895L53.8313 16.6402V16.4075V15.3792C53.8381 14.7121 53.6721 14.0546 53.3495 13.4693C53.0265 12.8833 52.5573 12.3895 51.9873 12.0344L51.9849 12.033C39.575 4.39788 24.2021 4.35937 11.7481 12.0332ZM10.4005 34.9626H9.90055V35.4626V47.9241H9.89902V48.4241C9.89902 52.1971 12.8689 55.2514 16.5953 55.528L16.6138 55.5294H16.6324H47.0995H47.118L47.1365 55.528C50.8614 55.2513 53.8313 52.1971 53.8313 48.4256V36.7124V36.5732L53.7593 36.454C53.62 36.2233 53.4975 36.0098 53.3721 35.7912C53.2995 35.6647 53.2259 35.5365 53.1475 35.4022L53.1464 35.4004L53.0334 35.2087L52.8883 34.9626H52.6027H10.4005Z" fill="#72A3DD" stroke="white"/>
</g>
<defs>
<clipPath id="clip0_8_4551">
<rect width="44" height="80" fill="white" transform="translate(0.5)"/>
</clipPath>
</defs>
</svg>
