<svg width="48" height="66" viewBox="0 0 48 66" fill="none" xmlns="http://www.w3.org/2000/svg">
<mask id="path-1-inside-1_8_4580" fill="white">
<path d="M66.125 39.5625C68.5312 39.5625 70.5 37.5938 70.5 35.1875V10.3958C70.5 7.98958 68.5312 6.02083 66.125 6.02083H51.5417V4.5625C51.5417 3.76042 50.8854 3.10417 50.0833 3.10417C49.2812 3.10417 48.625 3.76042 48.625 4.5625V6.02083H42.7917V4.5625C42.7917 3.76042 42.1354 3.10417 41.3333 3.10417C40.5312 3.10417 39.875 3.76042 39.875 4.5625V6.02083H23.8333V3.10417H25.2917C26.0938 3.10417 26.75 2.44792 26.75 1.64583C26.75 0.84375 26.0938 0.1875 25.2917 0.1875H12.1667C11.3646 0.1875 10.7083 0.84375 10.7083 1.64583C10.7083 2.44792 11.3646 3.10417 12.1667 3.10417H13.625V6.02083H4.875C2.46875 6.02083 0.5 7.98958 0.5 10.3958V35.1875C0.5 37.5938 2.46875 39.5625 4.875 39.5625H6.33333V42.4792H1.95833C1.15625 42.4792 0.5 43.1354 0.5 43.9375V55.6042C0.5 56.4062 1.15625 57.0625 1.95833 57.0625H4.875C4.875 61.8896 8.79792 65.8125 13.625 65.8125C18.4521 65.8125 22.375 61.8896 22.375 57.0625H47.1667C47.1667 61.8896 51.0896 65.8125 55.9167 65.8125C60.7438 65.8125 64.6667 61.8896 64.6667 57.0625C64.6667 52.2354 60.7438 48.3125 55.9167 48.3125C52.1104 48.3125 48.8875 50.7479 47.6771 54.1458H21.8646C20.6542 50.7479 17.4312 48.3125 13.625 48.3125C9.81875 48.3125 6.59583 50.7479 5.38542 54.1458H3.41667V45.3958H67.5833V54.1458H64.6667V57.0625H69.0417C69.8438 57.0625 70.5 56.4062 70.5 55.6042V43.9375C70.5 43.1354 69.8438 42.4792 69.0417 42.4792H64.6667V39.5625H66.125ZM55.9167 51.2292C59.1396 51.2292 61.75 53.8396 61.75 57.0625C61.75 60.2854 59.1396 62.8958 55.9167 62.8958C52.6938 62.8958 50.0833 60.2854 50.0833 57.0625C50.0833 53.8396 52.6938 51.2292 55.9167 51.2292ZM13.625 51.2292C16.8479 51.2292 19.4583 53.8396 19.4583 57.0625C19.4583 60.2854 16.8479 62.8958 13.625 62.8958C10.4021 62.8958 7.79167 60.2854 7.79167 57.0625C7.79167 53.8396 10.4021 51.2292 13.625 51.2292ZM48.625 8.9375V13.3125H42.7917V8.9375H48.625ZM42.7917 16.2292H48.625V20.6042H42.7917V16.2292ZM16.5417 3.10417H20.9167V6.02083H16.5417V3.10417ZM4.875 36.6458C4.07292 36.6458 3.41667 35.9896 3.41667 35.1875V10.3958C3.41667 9.59375 4.07292 8.9375 4.875 8.9375H39.875V29.3542C39.875 30.1562 40.5312 30.8125 41.3333 30.8125C42.1354 30.8125 42.7917 30.1562 42.7917 29.3542V23.5208H48.625V29.3542C48.625 30.1562 49.2812 30.8125 50.0833 30.8125C50.8854 30.8125 51.5417 30.1562 51.5417 29.3542V8.9375H66.125C66.9271 8.9375 67.5833 9.59375 67.5833 10.3958V35.1875C67.5833 35.9896 66.9271 36.6458 66.125 36.6458H64.6667V33.7292C64.6667 32.9271 64.0104 32.2708 63.2083 32.2708C62.4062 32.2708 61.75 32.9271 61.75 33.7292V36.6458H9.25V33.7292C9.25 32.9271 8.59375 32.2708 7.79167 32.2708C6.98958 32.2708 6.33333 32.9271 6.33333 33.7292V36.6458H4.875ZM61.75 42.4792H9.25V39.5625H61.75V42.4792Z"/>
</mask>
<path d="M66.125 39.5625C68.5312 39.5625 70.5 37.5938 70.5 35.1875V10.3958C70.5 7.98958 68.5312 6.02083 66.125 6.02083H51.5417V4.5625C51.5417 3.76042 50.8854 3.10417 50.0833 3.10417C49.2812 3.10417 48.625 3.76042 48.625 4.5625V6.02083H42.7917V4.5625C42.7917 3.76042 42.1354 3.10417 41.3333 3.10417C40.5312 3.10417 39.875 3.76042 39.875 4.5625V6.02083H23.8333V3.10417H25.2917C26.0938 3.10417 26.75 2.44792 26.75 1.64583C26.75 0.84375 26.0938 0.1875 25.2917 0.1875H12.1667C11.3646 0.1875 10.7083 0.84375 10.7083 1.64583C10.7083 2.44792 11.3646 3.10417 12.1667 3.10417H13.625V6.02083H4.875C2.46875 6.02083 0.5 7.98958 0.5 10.3958V35.1875C0.5 37.5938 2.46875 39.5625 4.875 39.5625H6.33333V42.4792H1.95833C1.15625 42.4792 0.5 43.1354 0.5 43.9375V55.6042C0.5 56.4062 1.15625 57.0625 1.95833 57.0625H4.875C4.875 61.8896 8.79792 65.8125 13.625 65.8125C18.4521 65.8125 22.375 61.8896 22.375 57.0625H47.1667C47.1667 61.8896 51.0896 65.8125 55.9167 65.8125C60.7438 65.8125 64.6667 61.8896 64.6667 57.0625C64.6667 52.2354 60.7438 48.3125 55.9167 48.3125C52.1104 48.3125 48.8875 50.7479 47.6771 54.1458H21.8646C20.6542 50.7479 17.4312 48.3125 13.625 48.3125C9.81875 48.3125 6.59583 50.7479 5.38542 54.1458H3.41667V45.3958H67.5833V54.1458H64.6667V57.0625H69.0417C69.8438 57.0625 70.5 56.4062 70.5 55.6042V43.9375C70.5 43.1354 69.8438 42.4792 69.0417 42.4792H64.6667V39.5625H66.125ZM55.9167 51.2292C59.1396 51.2292 61.75 53.8396 61.75 57.0625C61.75 60.2854 59.1396 62.8958 55.9167 62.8958C52.6938 62.8958 50.0833 60.2854 50.0833 57.0625C50.0833 53.8396 52.6938 51.2292 55.9167 51.2292ZM13.625 51.2292C16.8479 51.2292 19.4583 53.8396 19.4583 57.0625C19.4583 60.2854 16.8479 62.8958 13.625 62.8958C10.4021 62.8958 7.79167 60.2854 7.79167 57.0625C7.79167 53.8396 10.4021 51.2292 13.625 51.2292ZM48.625 8.9375V13.3125H42.7917V8.9375H48.625ZM42.7917 16.2292H48.625V20.6042H42.7917V16.2292ZM16.5417 3.10417H20.9167V6.02083H16.5417V3.10417ZM4.875 36.6458C4.07292 36.6458 3.41667 35.9896 3.41667 35.1875V10.3958C3.41667 9.59375 4.07292 8.9375 4.875 8.9375H39.875V29.3542C39.875 30.1562 40.5312 30.8125 41.3333 30.8125C42.1354 30.8125 42.7917 30.1562 42.7917 29.3542V23.5208H48.625V29.3542C48.625 30.1562 49.2812 30.8125 50.0833 30.8125C50.8854 30.8125 51.5417 30.1562 51.5417 29.3542V8.9375H66.125C66.9271 8.9375 67.5833 9.59375 67.5833 10.3958V35.1875C67.5833 35.9896 66.9271 36.6458 66.125 36.6458H64.6667V33.7292C64.6667 32.9271 64.0104 32.2708 63.2083 32.2708C62.4062 32.2708 61.75 32.9271 61.75 33.7292V36.6458H9.25V33.7292C9.25 32.9271 8.59375 32.2708 7.79167 32.2708C6.98958 32.2708 6.33333 32.9271 6.33333 33.7292V36.6458H4.875ZM61.75 42.4792H9.25V39.5625H61.75V42.4792Z" fill="#72A3DD"/>
<path d="M51.5417 6.02083H50.5417V7.02083H51.5417V6.02083ZM48.625 6.02083V7.02083H49.625V6.02083H48.625ZM42.7917 6.02083H41.7917V7.02083H42.7917V6.02083ZM39.875 6.02083V7.02083H40.875V6.02083H39.875ZM23.8333 6.02083H22.8333V7.02083H23.8333V6.02083ZM23.8333 3.10417V2.10417H22.8333V3.10417H23.8333ZM13.625 3.10417H14.625V2.10417H13.625V3.10417ZM13.625 6.02083V7.02083H14.625V6.02083H13.625ZM6.33333 39.5625H7.33333V38.5625H6.33333V39.5625ZM6.33333 42.4792V43.4792H7.33333V42.4792H6.33333ZM4.875 57.0625H5.875V56.0625H4.875V57.0625ZM22.375 57.0625V56.0625H21.375V57.0625H22.375ZM47.1667 57.0625H48.1667V56.0625H47.1667V57.0625ZM47.6771 54.1458V55.1458H48.3824L48.6191 54.4814L47.6771 54.1458ZM21.8646 54.1458L20.9226 54.4814L21.1593 55.1458H21.8646V54.1458ZM5.38542 54.1458V55.1458H6.09075L6.32743 54.4814L5.38542 54.1458ZM3.41667 54.1458H2.41667V55.1458H3.41667V54.1458ZM3.41667 45.3958V44.3958H2.41667V45.3958H3.41667ZM67.5833 45.3958H68.5833V44.3958H67.5833V45.3958ZM67.5833 54.1458V55.1458H68.5833V54.1458H67.5833ZM64.6667 54.1458V53.1458H63.6667V54.1458H64.6667ZM64.6667 42.4792H63.6667V43.4792H64.6667V42.4792ZM64.6667 39.5625V38.5625H63.6667V39.5625H64.6667ZM48.625 8.9375H49.625V7.9375H48.625V8.9375ZM48.625 13.3125V14.3125H49.625V13.3125H48.625ZM42.7917 13.3125H41.7917V14.3125H42.7917V13.3125ZM42.7917 8.9375V7.9375H41.7917V8.9375H42.7917ZM42.7917 16.2292V15.2292H41.7917V16.2292H42.7917ZM48.625 16.2292H49.625V15.2292H48.625V16.2292ZM48.625 20.6042V21.6042H49.625V20.6042H48.625ZM42.7917 20.6042H41.7917V21.6042H42.7917V20.6042ZM16.5417 3.10417V2.10417H15.5417V3.10417H16.5417ZM20.9167 3.10417H21.9167V2.10417H20.9167V3.10417ZM20.9167 6.02083V7.02083H21.9167V6.02083H20.9167ZM16.5417 6.02083H15.5417V7.02083H16.5417V6.02083ZM39.875 8.9375H40.875V7.9375H39.875V8.9375ZM42.7917 23.5208V22.5208H41.7917V23.5208H42.7917ZM48.625 23.5208H49.625V22.5208H48.625V23.5208ZM51.5417 8.9375V7.9375H50.5417V8.9375H51.5417ZM64.6667 36.6458H63.6667V37.6458H64.6667V36.6458ZM61.75 36.6458V37.6458H62.75V36.6458H61.75ZM9.25 36.6458H8.25V37.6458H9.25V36.6458ZM6.33333 36.6458V37.6458H7.33333V36.6458H6.33333ZM61.75 42.4792V43.4792H62.75V42.4792H61.75ZM9.25 42.4792H8.25V43.4792H9.25V42.4792ZM9.25 39.5625V38.5625H8.25V39.5625H9.25ZM61.75 39.5625H62.75V38.5625H61.75V39.5625ZM66.125 40.5625C69.0835 40.5625 71.5 38.146 71.5 35.1875H69.5C69.5 37.0415 67.979 38.5625 66.125 38.5625V40.5625ZM71.5 35.1875V10.3958H69.5V35.1875H71.5ZM71.5 10.3958C71.5 7.4373 69.0835 5.02083 66.125 5.02083V7.02083C67.979 7.02083 69.5 8.54187 69.5 10.3958H71.5ZM66.125 5.02083H51.5417V7.02083H66.125V5.02083ZM52.5417 6.02083V4.5625H50.5417V6.02083H52.5417ZM52.5417 4.5625C52.5417 3.20813 51.4377 2.10417 50.0833 2.10417V4.10417C50.3331 4.10417 50.5417 4.3127 50.5417 4.5625H52.5417ZM50.0833 2.10417C48.729 2.10417 47.625 3.20813 47.625 4.5625H49.625C49.625 4.3127 49.8335 4.10417 50.0833 4.10417V2.10417ZM47.625 4.5625V6.02083H49.625V4.5625H47.625ZM48.625 5.02083H42.7917V7.02083H48.625V5.02083ZM43.7917 6.02083V4.5625H41.7917V6.02083H43.7917ZM43.7917 4.5625C43.7917 3.20813 42.6877 2.10417 41.3333 2.10417V4.10417C41.5831 4.10417 41.7917 4.3127 41.7917 4.5625H43.7917ZM41.3333 2.10417C39.979 2.10417 38.875 3.20813 38.875 4.5625H40.875C40.875 4.3127 41.0835 4.10417 41.3333 4.10417V2.10417ZM38.875 4.5625V6.02083H40.875V4.5625H38.875ZM39.875 5.02083H23.8333V7.02083H39.875V5.02083ZM24.8333 6.02083V3.10417H22.8333V6.02083H24.8333ZM23.8333 4.10417H25.2917V2.10417H23.8333V4.10417ZM25.2917 4.10417C26.646 4.10417 27.75 3.0002 27.75 1.64583H25.75C25.75 1.89563 25.5415 2.10417 25.2917 2.10417V4.10417ZM27.75 1.64583C27.75 0.291465 26.646 -0.8125 25.2917 -0.8125V1.1875C25.5415 1.1875 25.75 1.39603 25.75 1.64583H27.75ZM25.2917 -0.8125H12.1667V1.1875H25.2917V-0.8125ZM12.1667 -0.8125C10.8123 -0.8125 9.70833 0.291465 9.70833 1.64583H11.7083C11.7083 1.39603 11.9169 1.1875 12.1667 1.1875V-0.8125ZM9.70833 1.64583C9.70833 3.0002 10.8123 4.10417 12.1667 4.10417V2.10417C11.9169 2.10417 11.7083 1.89563 11.7083 1.64583H9.70833ZM12.1667 4.10417H13.625V2.10417H12.1667V4.10417ZM12.625 3.10417V6.02083H14.625V3.10417H12.625ZM13.625 5.02083H4.875V7.02083H13.625V5.02083ZM4.875 5.02083C1.91647 5.02083 -0.5 7.4373 -0.5 10.3958H1.5C1.5 8.54187 3.02103 7.02083 4.875 7.02083V5.02083ZM-0.5 10.3958V35.1875H1.5V10.3958H-0.5ZM-0.5 35.1875C-0.5 38.146 1.91647 40.5625 4.875 40.5625V38.5625C3.02103 38.5625 1.5 37.0415 1.5 35.1875H-0.5ZM4.875 40.5625H6.33333V38.5625H4.875V40.5625ZM5.33333 39.5625V42.4792H7.33333V39.5625H5.33333ZM6.33333 41.4792H1.95833V43.4792H6.33333V41.4792ZM1.95833 41.4792C0.603965 41.4792 -0.5 42.5831 -0.5 43.9375H1.5C1.5 43.6877 1.70853 43.4792 1.95833 43.4792V41.4792ZM-0.5 43.9375V55.6042H1.5V43.9375H-0.5ZM-0.5 55.6042C-0.5 56.9585 0.603965 58.0625 1.95833 58.0625V56.0625C1.70853 56.0625 1.5 55.854 1.5 55.6042H-0.5ZM1.95833 58.0625H4.875V56.0625H1.95833V58.0625ZM3.875 57.0625C3.875 62.4419 8.24563 66.8125 13.625 66.8125V64.8125C9.3502 64.8125 5.875 61.3373 5.875 57.0625H3.875ZM13.625 66.8125C19.0044 66.8125 23.375 62.4419 23.375 57.0625H21.375C21.375 61.3373 17.8998 64.8125 13.625 64.8125V66.8125ZM22.375 58.0625H47.1667V56.0625H22.375V58.0625ZM46.1667 57.0625C46.1667 62.4419 50.5373 66.8125 55.9167 66.8125V64.8125C51.6419 64.8125 48.1667 61.3373 48.1667 57.0625H46.1667ZM55.9167 66.8125C61.296 66.8125 65.6667 62.4419 65.6667 57.0625H63.6667C63.6667 61.3373 60.1915 64.8125 55.9167 64.8125V66.8125ZM65.6667 57.0625C65.6667 51.6831 61.296 47.3125 55.9167 47.3125V49.3125C60.1915 49.3125 63.6667 52.7877 63.6667 57.0625H65.6667ZM55.9167 47.3125C51.6703 47.3125 48.0815 50.0304 46.7351 53.8103L48.6191 54.4814C49.6935 51.4654 52.5505 49.3125 55.9167 49.3125V47.3125ZM47.6771 53.1458H21.8646V55.1458H47.6771V53.1458ZM22.8066 53.8103C21.4601 50.0304 17.8714 47.3125 13.625 47.3125V49.3125C16.9911 49.3125 19.8482 51.4654 20.9226 54.4814L22.8066 53.8103ZM13.625 47.3125C9.37862 47.3125 5.78987 50.0304 4.4434 53.8103L6.32743 54.4814C7.4018 51.4654 10.2589 49.3125 13.625 49.3125V47.3125ZM5.38542 53.1458H3.41667V55.1458H5.38542V53.1458ZM4.41667 54.1458V45.3958H2.41667V54.1458H4.41667ZM3.41667 46.3958H67.5833V44.3958H3.41667V46.3958ZM66.5833 45.3958V54.1458H68.5833V45.3958H66.5833ZM67.5833 53.1458H64.6667V55.1458H67.5833V53.1458ZM63.6667 54.1458V57.0625H65.6667V54.1458H63.6667ZM64.6667 58.0625H69.0417V56.0625H64.6667V58.0625ZM69.0417 58.0625C70.396 58.0625 71.5 56.9585 71.5 55.6042H69.5C69.5 55.854 69.2915 56.0625 69.0417 56.0625V58.0625ZM71.5 55.6042V43.9375H69.5V55.6042H71.5ZM71.5 43.9375C71.5 42.5831 70.396 41.4792 69.0417 41.4792V43.4792C69.2915 43.4792 69.5 43.6877 69.5 43.9375H71.5ZM69.0417 41.4792H64.6667V43.4792H69.0417V41.4792ZM65.6667 42.4792V39.5625H63.6667V42.4792H65.6667ZM64.6667 40.5625H66.125V38.5625H64.6667V40.5625ZM55.9167 52.2292C58.5873 52.2292 60.75 54.3919 60.75 57.0625H62.75C62.75 53.2873 59.6919 50.2292 55.9167 50.2292V52.2292ZM60.75 57.0625C60.75 59.7331 58.5873 61.8958 55.9167 61.8958V63.8958C59.6919 63.8958 62.75 60.8377 62.75 57.0625H60.75ZM55.9167 61.8958C53.246 61.8958 51.0833 59.7331 51.0833 57.0625H49.0833C49.0833 60.8377 52.1415 63.8958 55.9167 63.8958V61.8958ZM51.0833 57.0625C51.0833 54.3919 53.246 52.2292 55.9167 52.2292V50.2292C52.1415 50.2292 49.0833 53.2873 49.0833 57.0625H51.0833ZM13.625 52.2292C16.2956 52.2292 18.4583 54.3919 18.4583 57.0625H20.4583C20.4583 53.2873 17.4002 50.2292 13.625 50.2292V52.2292ZM18.4583 57.0625C18.4583 59.7331 16.2956 61.8958 13.625 61.8958V63.8958C17.4002 63.8958 20.4583 60.8377 20.4583 57.0625H18.4583ZM13.625 61.8958C10.9544 61.8958 8.79167 59.7331 8.79167 57.0625H6.79167C6.79167 60.8377 9.8498 63.8958 13.625 63.8958V61.8958ZM8.79167 57.0625C8.79167 54.3919 10.9544 52.2292 13.625 52.2292V50.2292C9.8498 50.2292 6.79167 53.2873 6.79167 57.0625H8.79167ZM47.625 8.9375V13.3125H49.625V8.9375H47.625ZM48.625 12.3125H42.7917V14.3125H48.625V12.3125ZM43.7917 13.3125V8.9375H41.7917V13.3125H43.7917ZM42.7917 9.9375H48.625V7.9375H42.7917V9.9375ZM42.7917 17.2292H48.625V15.2292H42.7917V17.2292ZM47.625 16.2292V20.6042H49.625V16.2292H47.625ZM48.625 19.6042H42.7917V21.6042H48.625V19.6042ZM43.7917 20.6042V16.2292H41.7917V20.6042H43.7917ZM16.5417 4.10417H20.9167V2.10417H16.5417V4.10417ZM19.9167 3.10417V6.02083H21.9167V3.10417H19.9167ZM20.9167 5.02083H16.5417V7.02083H20.9167V5.02083ZM17.5417 6.02083V3.10417H15.5417V6.02083H17.5417ZM4.875 35.6458C4.6252 35.6458 4.41667 35.4373 4.41667 35.1875H2.41667C2.41667 36.5419 3.52063 37.6458 4.875 37.6458V35.6458ZM4.41667 35.1875V10.3958H2.41667V35.1875H4.41667ZM4.41667 10.3958C4.41667 10.146 4.6252 9.9375 4.875 9.9375V7.9375C3.52063 7.9375 2.41667 9.04147 2.41667 10.3958H4.41667ZM4.875 9.9375H39.875V7.9375H4.875V9.9375ZM38.875 8.9375V29.3542H40.875V8.9375H38.875ZM38.875 29.3542C38.875 30.7085 39.979 31.8125 41.3333 31.8125V29.8125C41.0835 29.8125 40.875 29.604 40.875 29.3542H38.875ZM41.3333 31.8125C42.6877 31.8125 43.7917 30.7085 43.7917 29.3542H41.7917C41.7917 29.604 41.5831 29.8125 41.3333 29.8125V31.8125ZM43.7917 29.3542V23.5208H41.7917V29.3542H43.7917ZM42.7917 24.5208H48.625V22.5208H42.7917V24.5208ZM47.625 23.5208V29.3542H49.625V23.5208H47.625ZM47.625 29.3542C47.625 30.7085 48.729 31.8125 50.0833 31.8125V29.8125C49.8335 29.8125 49.625 29.604 49.625 29.3542H47.625ZM50.0833 31.8125C51.4377 31.8125 52.5417 30.7085 52.5417 29.3542H50.5417C50.5417 29.604 50.3331 29.8125 50.0833 29.8125V31.8125ZM52.5417 29.3542V8.9375H50.5417V29.3542H52.5417ZM51.5417 9.9375H66.125V7.9375H51.5417V9.9375ZM66.125 9.9375C66.3748 9.9375 66.5833 10.146 66.5833 10.3958H68.5833C68.5833 9.04147 67.4794 7.9375 66.125 7.9375V9.9375ZM66.5833 10.3958V35.1875H68.5833V10.3958H66.5833ZM66.5833 35.1875C66.5833 35.4373 66.3748 35.6458 66.125 35.6458V37.6458C67.4794 37.6458 68.5833 36.5419 68.5833 35.1875H66.5833ZM66.125 35.6458H64.6667V37.6458H66.125V35.6458ZM65.6667 36.6458V33.7292H63.6667V36.6458H65.6667ZM65.6667 33.7292C65.6667 32.3748 64.5627 31.2708 63.2083 31.2708V33.2708C63.4581 33.2708 63.6667 33.4794 63.6667 33.7292H65.6667ZM63.2083 31.2708C61.854 31.2708 60.75 32.3748 60.75 33.7292H62.75C62.75 33.4794 62.9585 33.2708 63.2083 33.2708V31.2708ZM60.75 33.7292V36.6458H62.75V33.7292H60.75ZM61.75 35.6458H9.25V37.6458H61.75V35.6458ZM10.25 36.6458V33.7292H8.25V36.6458H10.25ZM10.25 33.7292C10.25 32.3748 9.14604 31.2708 7.79167 31.2708V33.2708C8.04147 33.2708 8.25 33.4794 8.25 33.7292H10.25ZM7.79167 31.2708C6.4373 31.2708 5.33333 32.3748 5.33333 33.7292H7.33333C7.33333 33.4794 7.54187 33.2708 7.79167 33.2708V31.2708ZM5.33333 33.7292V36.6458H7.33333V33.7292H5.33333ZM6.33333 35.6458H4.875V37.6458H6.33333V35.6458ZM61.75 41.4792H9.25V43.4792H61.75V41.4792ZM10.25 42.4792V39.5625H8.25V42.4792H10.25ZM9.25 40.5625H61.75V38.5625H9.25V40.5625ZM60.75 39.5625V42.4792H62.75V39.5625H60.75Z" fill="white" mask="url(#path-1-inside-1_8_4580)"/>
<path d="M21.3139 16.8004L20.9167 16.281L20.5196 16.8004C19.4681 18.1755 18.3615 19.7719 17.515 21.2278C17.092 21.9554 16.7288 22.6565 16.47 23.2829C16.2163 23.8968 16.0417 24.488 16.0417 24.9791C16.0417 27.6615 18.2344 29.8541 20.9167 29.8541C23.5991 29.8541 25.7917 27.6615 25.7917 24.9791C25.7917 24.4848 25.6175 23.8921 25.3636 23.277C25.1047 22.6496 24.7414 21.9488 24.3184 21.2221C23.4718 19.7679 22.3652 18.1751 21.3139 16.8004ZM27.7084 24.9791C27.7084 28.728 24.6656 31.7708 20.9167 31.7708C17.1679 31.7708 14.1251 28.728 14.1251 24.9791C14.1251 24.1909 14.4133 23.202 14.9019 22.1093C15.3861 21.0262 16.0468 19.8851 16.7463 18.8051C18.1426 16.6494 19.6674 14.7776 20.1773 14.1584C20.5496 13.7226 21.3028 13.731 21.6539 14.1556C22.1614 14.7719 23.6887 16.6461 25.0872 18.8051C25.7867 19.8851 26.4474 21.0262 26.9316 22.1093C27.4202 23.202 27.7084 24.1909 27.7084 24.9791ZM14.5834 57.0625C14.5834 57.5884 14.151 58.0208 13.6251 58.0208C13.0991 58.0208 12.6667 57.5884 12.6667 57.0625C12.6667 56.5365 13.0991 56.1041 13.6251 56.1041C14.151 56.1041 14.5834 56.5365 14.5834 57.0625Z" fill="#72A3DD" stroke="white"/>
</svg>
