<svg width="54" height="66" viewBox="0 0 54 66" fill="none" xmlns="http://www.w3.org/2000/svg">
<g clip-path="url(#clip0_8_4594)">
<path d="M33.2329 28.6204L33.2334 28.6202L63.7978 14.675L63.7988 14.6746C63.996 14.5835 64.2293 14.6007 64.4148 14.7176C64.5988 14.8377 64.7087 15.0395 64.7087 15.2609V50.7348C64.7087 50.9863 64.5612 51.2163 64.3317 51.3204L64.3312 51.3206L33.7668 65.2658L33.7653 65.2665C33.6806 65.3058 33.5932 65.3242 33.5001 65.3242C33.3773 65.3242 33.258 65.2908 33.1494 65.223C32.9657 65.1029 32.8559 64.9012 32.8559 64.68V29.206C32.8559 28.9545 33.0033 28.7245 33.2329 28.6204ZM34.2905 29.5534L34.1443 29.6201V29.7809V63.2876V63.6764L34.4981 63.515L63.2741 50.3874L63.4203 50.3207V50.16V16.6532V16.2644L63.0665 16.4258L34.2905 29.5534ZM13.6649 51.7088L13.6634 51.7081L6.60774 48.489L6.60719 48.4888C6.37766 48.3847 6.23022 48.1547 6.23022 47.9032V41.4735C6.23022 41.2553 6.34113 41.0491 6.52525 40.9294C6.7076 40.8109 6.94011 40.7949 7.1401 40.8872L7.1411 40.8877L14.1967 44.1068L14.1973 44.107C14.4268 44.2111 14.5742 44.4411 14.5742 44.6926V51.1223C14.5742 51.3399 14.464 51.5455 14.2808 51.6653C14.1727 51.7328 14.0492 51.7665 13.93 51.7665C13.8369 51.7665 13.7495 51.7481 13.6649 51.7088ZM7.51861 47.3283V47.4891L7.6649 47.5558L12.9321 49.9574L13.2858 50.1186V49.7299V45.2674V45.1067L13.1396 45.04L7.87233 42.6384L7.51861 42.4771V42.8659V47.3283Z" fill="#72A3DD" stroke="white" stroke-width="0.5"/>
<path d="M33.2349 65.2665L33.2334 65.2658L2.66902 51.3207L2.66847 51.3204C2.43894 51.2163 2.2915 50.9863 2.2915 50.7348V15.2651C2.2915 15.0469 2.40241 14.8407 2.58653 14.7211C2.76888 14.6025 3.00139 14.5865 3.20138 14.6788L3.20238 14.6793L33.7668 28.6245L33.7673 28.6247C33.9968 28.7288 34.1443 28.9588 34.1443 29.2103V64.68C34.1443 64.8975 34.034 65.1032 33.8508 65.223C33.7423 65.2908 33.6229 65.3242 33.5001 65.3242C33.407 65.3242 33.3196 65.3058 33.2349 65.2665ZM3.57989 50.16V50.3207L3.72613 50.3874L32.5021 63.515L32.8559 63.6764V63.2876V29.7809V29.6201L32.7097 29.5534L3.93365 16.4258L3.57989 16.2644V16.6533V50.16Z" fill="#72A3DD" stroke="white" stroke-width="0.5"/>
<path d="M20.5847 32.1899L20.5831 32.1892L13.8128 29.1021L13.8122 29.1018C13.4878 28.9549 13.3463 28.5719 13.4936 28.2498L13.494 28.2489C13.6408 27.9246 14.0239 27.7831 14.346 27.9303L14.3462 27.9304L21.1166 31.0175L21.1172 31.0178C21.4415 31.1647 21.583 31.5478 21.4357 31.8699L21.4355 31.8704C21.3283 32.1062 21.0955 32.2476 20.8498 32.2476C20.7603 32.2476 20.6688 32.229 20.5847 32.1899ZM63.7998 15.8517L63.7982 15.851L33.6043 2.07617L33.5005 2.02883L33.3968 2.07617L3.20348 15.8507C3.20337 15.8508 3.20327 15.8508 3.20317 15.8509C2.87634 15.9987 2.49739 15.8567 2.3506 15.5325L2.12286 15.6356L2.3506 15.5325C2.20257 15.2056 2.34456 14.8265 2.66883 14.6796L2.66947 14.6793L33.2335 0.73431C33.2336 0.734287 33.2336 0.734263 33.2337 0.734239C33.4021 0.65776 33.599 0.65776 33.7674 0.734239C33.7674 0.734263 33.7675 0.734287 33.7675 0.73431L64.3316 14.6793L64.3322 14.6796C64.6566 14.8265 64.7981 15.2096 64.6508 15.5317L64.6506 15.5322C64.5434 15.768 64.3106 15.9094 64.0649 15.9094C63.9754 15.9094 63.8839 15.8908 63.7998 15.8517Z" fill="#72A3DD" stroke="white" stroke-width="0.5"/>
<path d="M13.8117 19.7638L13.8123 19.7635L44.376 5.81862C44.3762 5.81856 44.3763 5.81851 44.3764 5.81845C44.7032 5.6707 45.0821 5.8127 45.2289 6.13685C45.3769 6.46374 45.235 6.84288 44.9107 6.98972L44.91 6.99002L14.3457 20.9352L14.3441 20.9359C14.26 20.9749 14.1685 20.9935 14.079 20.9935C13.8333 20.9935 13.6005 20.8522 13.4933 20.6165C13.3455 20.2896 13.4875 19.9106 13.8117 19.7638ZM20.5982 22.8403L20.5983 22.8404L20.6039 22.8378L51.1464 8.90572C51.1465 8.90564 51.1467 8.90556 51.1469 8.90548C51.4737 8.75784 51.8525 8.89985 51.9992 9.22394C52.1473 9.55084 52.0053 9.92998 51.681 10.0768L51.6804 10.0771L21.116 24.0223L21.116 24.0222L21.1113 24.0245C21.0343 24.0615 20.9444 24.0806 20.8493 24.0806C20.4934 24.0806 20.2051 23.7923 20.2051 23.4364C20.2051 23.1695 20.3679 22.9386 20.5982 22.8403Z" fill="#72A3DD" stroke="white" stroke-width="0.5"/>
<path d="M20.8493 32.2475C20.4935 32.2475 20.2051 31.9592 20.2051 31.6033V23.4364C20.2051 23.0805 20.4935 22.7922 20.8493 22.7922C21.2052 22.7922 21.4935 23.0805 21.4935 23.4364V31.6033C21.4935 31.9592 21.2052 32.2475 20.8493 32.2475ZM14.079 29.1562C13.7231 29.1562 13.4348 28.8678 13.4348 28.512V20.3493C13.4348 19.9934 13.7231 19.7051 14.079 19.7051C14.4349 19.7051 14.7232 19.9934 14.7232 20.3493V28.5162C14.7232 28.8671 14.4357 29.1562 14.079 29.1562Z" fill="#72A3DD" stroke="white" stroke-width="0.5"/>
</g>
<defs>
<clipPath id="clip0_8_4594">
<rect width="53" height="66" fill="white" transform="translate(0.5)"/>
</clipPath>
</defs>
</svg>
