<svg width="14" height="15" viewBox="0 0 14 15" fill="none" xmlns="http://www.w3.org/2000/svg">
<path d="M14 2.46499V4.49999H0V2.46499C0.00514132 2.07197 0.165942 1.69702 0.447136 1.42239C0.728331 1.14776 1.10696 0.995853 1.5 0.999991H2.5V1.99999C2.5 2.39782 2.65804 2.77935 2.93934 3.06065C3.22064 3.34196 3.60218 3.49999 4 3.49999C4.39782 3.49999 4.77936 3.34196 5.06066 3.06065C5.34196 2.77935 5.5 2.39782 5.5 1.99999V0.999991H8.5V1.99999C8.5 2.39782 8.65804 2.77935 8.93934 3.06065C9.22064 3.34196 9.60218 3.49999 10 3.49999C10.3978 3.49999 10.7794 3.34196 11.0607 3.06065C11.342 2.77935 11.5 2.39782 11.5 1.99999V0.999991H12.5C12.893 0.995853 13.2717 1.14776 13.5529 1.42239C13.8341 1.69702 13.9949 2.07197 14 2.46499ZM0 5.49999V13.535C0.00514132 13.928 0.165942 14.303 0.447136 14.5776C0.728331 14.8522 1.10696 15.0041 1.5 15H12.5C12.893 15.0041 13.2717 14.8522 13.5529 14.5776C13.8341 14.303 13.9949 13.928 14 13.535V5.49999H0ZM4.5 12.5C4.4996 12.6325 4.4468 12.7594 4.35312 12.8531C4.25943 12.9468 4.13249 12.9996 4 13H3C2.86751 12.9996 2.74057 12.9468 2.64688 12.8531C2.5532 12.7594 2.5004 12.6325 2.5 12.5V11.5C2.5004 11.3675 2.5532 11.2406 2.64688 11.1469C2.74057 11.0532 2.86751 11.0004 3 11H4C4.13249 11.0004 4.25943 11.0532 4.35312 11.1469C4.4468 11.2406 4.4996 11.3675 4.5 11.5V12.5ZM4.5 8.99999C4.4996 9.13248 4.4468 9.25942 4.35312 9.35311C4.25943 9.44679 4.13249 9.49959 4 9.49999H3C2.86751 9.49959 2.74057 9.44679 2.64688 9.35311C2.5532 9.25942 2.5004 9.13248 2.5 8.99999V7.99999C2.5004 7.8675 2.5532 7.74056 2.64688 7.64687C2.74057 7.55319 2.86751 7.50039 3 7.49999H4C4.13249 7.50039 4.25943 7.55319 4.35312 7.64687C4.4468 7.74056 4.4996 7.8675 4.5 7.99999V8.99999ZM8 12.5C7.9996 12.6325 7.9468 12.7594 7.85312 12.8531C7.75943 12.9468 7.63249 12.9996 7.5 13H6.5C6.36751 12.9996 6.24057 12.9468 6.14688 12.8531C6.0532 12.7594 6.0004 12.6325 6 12.5V11.5C6.0004 11.3675 6.0532 11.2406 6.14688 11.1469C6.24057 11.0532 6.36751 11.0004 6.5 11H7.5C7.63249 11.0004 7.75943 11.0532 7.85312 11.1469C7.9468 11.2406 7.9996 11.3675 8 11.5V12.5ZM8 8.99999C7.9996 9.13248 7.9468 9.25942 7.85312 9.35311C7.75943 9.44679 7.63249 9.49959 7.5 9.49999H6.5C6.36751 9.49959 6.24057 9.44679 6.14688 9.35311C6.0532 9.25942 6.0004 9.13248 6 8.99999V7.99999C6.0004 7.8675 6.0532 7.74056 6.14688 7.64687C6.24057 7.55319 6.36751 7.50039 6.5 7.49999H7.5C7.63249 7.50039 7.75943 7.55319 7.85312 7.64687C7.9468 7.74056 7.9996 7.8675 8 7.99999V8.99999ZM11.5 8.99999C11.4996 9.13248 11.4468 9.25942 11.3531 9.35311C11.2594 9.44679 11.1325 9.49959 11 9.49999H10C9.86751 9.49959 9.74057 9.44679 9.64688 9.35311C9.5532 9.25942 9.5004 9.13248 9.5 8.99999V7.99999C9.5004 7.8675 9.5532 7.74056 9.64688 7.64687C9.74057 7.55319 9.86751 7.50039 10 7.49999H11C11.1325 7.50039 11.2594 7.55319 11.3531 7.64687C11.4468 7.74056 11.4996 7.8675 11.5 7.99999V8.99999Z" fill="#006BE9"/>
<path d="M4.5 1V2C4.5 2.13261 4.44732 2.25979 4.35355 2.35355C4.25979 2.44732 4.13261 2.5 4 2.5C3.86739 2.5 3.74021 2.44732 3.64645 2.35355C3.55268 2.25979 3.5 2.13261 3.5 2V1C3.5 0.867392 3.55268 0.740215 3.64645 0.646447C3.74021 0.552678 3.86739 0.5 4 0.5C4.13261 0.5 4.25979 0.552678 4.35355 0.646447C4.44732 0.740215 4.5 0.867392 4.5 1ZM10.5 1V2C10.5 2.13261 10.4473 2.25979 10.3536 2.35355C10.2598 2.44732 10.1326 2.5 10 2.5C9.86739 2.5 9.74021 2.44732 9.64645 2.35355C9.55268 2.25979 9.5 2.13261 9.5 2V1C9.5 0.867392 9.55268 0.740215 9.64645 0.646447C9.74021 0.552678 9.86739 0.5 10 0.5C10.1326 0.5 10.2598 0.552678 10.3536 0.646447C10.4473 0.740215 10.5 0.867392 10.5 1Z" fill="#006BE9"/>
</svg>
