<svg width="25" height="25" viewBox="0 0 25 25" fill="none" xmlns="http://www.w3.org/2000/svg">
<path d="M11.7923 9.35383L12.4994 10.0609L13.2065 9.35383L20.3135 2.24685C20.987 1.57334 22.0789 1.57334 22.7525 2.24685C23.426 2.92036 23.426 4.01231 22.7525 4.68582L15.6455 11.7928L14.9384 12.4999L15.6455 13.207L22.7525 20.314C23.426 20.9875 23.426 22.0794 22.7525 22.7529C22.0789 23.4265 20.987 23.4265 20.3135 22.7529L13.2065 15.646L12.4994 14.9389L11.7923 15.646L4.68533 22.7529C4.01182 23.4265 2.91987 23.4265 2.24636 22.7529C1.57285 22.0794 1.57285 20.9875 2.24636 20.314L9.35334 13.207L10.0604 12.4999L9.35334 11.7928L2.24636 4.68582C1.57285 4.01231 1.57285 2.92036 2.24636 2.24685C2.91987 1.57334 4.01182 1.57334 4.68533 2.24685L11.7923 9.35383Z" fill="#E51017" stroke="white" stroke-width="2"/>
</svg>
