<svg width="17" height="8" viewBox="0 0 17 8" fill="none" xmlns="http://www.w3.org/2000/svg">
<path d="M8.9439 7.83429L16.2294 0.405896C16.3436 0.287613 16.2756 0.146474 16.0594 0.0641899C15.9548 0.0239264 15.8244 0.00136553 15.6892 0.000122227C15.554 -0.00112107 15.4218 0.0190251 15.3139 0.0573329L8.39263 2.50013L1.47137 0.0573323C1.24916 -0.0215229 0.940742 -0.0186659 0.72582 0.0636178C0.578895 0.119045 0.499968 0.2019 0.499968 0.285898C0.499968 0.326469 0.518181 0.367039 0.555823 0.405324L7.84136 7.83372C7.94093 7.93543 8.15585 8 8.39263 8C8.62941 8 8.84433 7.93543 8.9439 7.83429Z" fill="#006BE9"/>
</svg>
