<svg width="129" height="138" viewBox="0 0 129 138" fill="none" xmlns="http://www.w3.org/2000/svg">
<g clip-path="url(#clip0_8_4705)">
<path d="M80.3944 138C72.1713 138 64.7407 135.919 58.1028 131.758C51.5639 127.597 46.412 121.554 42.6472 113.628C38.8824 105.603 37 95.8935 37 84.5C37 73.1065 38.8824 63.4468 42.6472 55.5208C46.412 47.4958 51.5639 41.4028 58.1028 37.2417C64.7407 33.0806 72.1713 31 80.3944 31C88.7167 31 96.1472 33.0806 102.686 37.2417C109.225 41.4028 114.377 47.4958 118.142 55.5208C122.006 63.4468 123.938 73.1065 123.938 84.5C123.938 95.8935 122.006 105.603 118.142 113.628C114.377 121.554 109.225 127.597 102.686 131.758C96.1472 135.919 88.7167 138 80.3944 138ZM80.3944 121.207C85.2491 121.207 89.4597 119.919 93.0264 117.343C96.5931 114.668 99.3671 110.606 101.349 105.157C103.429 99.7079 104.469 92.8222 104.469 84.5C104.469 76.0787 103.429 69.1931 101.349 63.8431C99.3671 58.394 96.5931 54.3815 93.0264 51.8055C89.4597 49.1306 85.2491 47.7931 80.3944 47.7931C75.738 47.7931 71.5768 49.1306 67.9111 51.8055C64.3444 54.3815 61.5208 58.394 59.4403 63.8431C57.4588 69.1931 56.4681 76.0787 56.4681 84.5C56.4681 92.8222 57.4588 99.7079 59.4403 105.157C61.5208 110.606 64.3444 114.668 67.9111 117.343C71.5768 119.919 75.738 121.207 80.3944 121.207Z" fill="#F8F8F8"/>
<path d="M11.8201 136.514V39.9169L20.291 48.6849H-10.1743V32.4863H31.1396V136.514H11.8201Z" fill="#F8F8F8"/>
</g>
<defs>
<clipPath id="clip0_8_4705">
<path d="M0 0H129V138H10C4.47715 138 0 133.523 0 128V0Z" fill="white"/>
</clipPath>
</defs>
</svg>
