<svg width="38" height="59" viewBox="0 0 38 59" fill="none" xmlns="http://www.w3.org/2000/svg">
<path d="M-5.71271 59V51.7704L17.8379 29.8324C19.8146 28.0042 21.283 26.3977 22.2431 25.0127C23.2032 23.6277 23.8244 22.3535 24.1068 21.1901C24.4457 19.9714 24.6151 18.8357 24.6151 17.7831C24.6151 15.1239 23.6832 13.0742 21.8195 11.6338C19.9558 10.138 17.2167 9.39014 13.6022 9.39014C10.7219 9.39014 8.09576 9.88873 5.72376 10.8859C3.40823 11.8831 1.40331 13.4066 -0.290976 15.4563L-8 9.63943C-5.68447 6.59249 -2.57827 4.23803 1.3186 2.57606C5.27195 0.858687 9.6771 0 14.5341 0C18.8263 0 22.5537 0.692489 25.7164 2.07746C28.9355 3.40704 31.3923 5.31831 33.0866 7.81126C34.8373 10.3042 35.7127 13.2681 35.7127 16.7028C35.7127 18.5864 35.4586 20.47 34.9503 22.3535C34.442 24.1817 33.4819 26.1207 32.07 28.1704C30.6581 30.2202 28.5967 32.5192 25.8858 35.0676L5.63904 53.931L3.35175 49.8592H38V59H-5.71271Z" fill="#F8F8F8"/>
</svg>
