<svg width="79" height="114" viewBox="0 0 79 114" fill="none" xmlns="http://www.w3.org/2000/svg">
<path d="M35.9517 121C25.3017 121 16.1652 118.759 8.54204 114.278C0.918902 109.684 -4.91056 103.074 -8.94633 94.4472C-12.9821 85.8204 -15 75.1768 -15 62.5167C-15 49.0722 -12.5897 37.7005 -7.76923 28.4014C-2.83661 19.1023 3.94573 12.044 12.5778 7.22639C21.322 2.4088 31.3554 0 42.678 0C48.6196 0 54.2809 0.616201 59.6619 1.84861C65.155 3.08102 69.8074 4.98565 73.619 7.5625L65.5474 24.0319C62.2964 21.9032 58.7651 20.4468 54.9535 19.6625C51.254 18.7662 47.3304 18.3181 43.1825 18.3181C32.0841 18.3181 23.2838 21.7352 16.7818 28.5694C10.2797 35.4037 7.02862 45.487 7.02862 58.8194C7.02862 60.9481 7.08467 63.469 7.19678 66.3819C7.30888 69.1829 7.70125 72.0398 8.37388 74.9528L1.64758 67.5583C3.66547 62.9648 6.41204 59.1556 9.8873 56.1306C13.4747 52.9935 17.6786 50.6407 22.4991 49.0722C27.4317 47.5037 32.7567 46.7194 38.4741 46.7194C46.2093 46.7194 53.1038 48.2319 59.1574 51.2569C65.2111 54.1699 70.0316 58.3713 73.619 63.8611C77.2063 69.2389 79 75.569 79 82.8514C79 90.5819 77.0942 97.3042 73.2826 103.018C69.4711 108.732 64.3142 113.157 57.8122 116.294C51.3101 119.431 44.0233 121 35.9517 121ZM34.7746 103.858C39.2588 103.858 43.2385 103.074 46.7138 101.506C50.189 99.825 52.8795 97.4722 54.7853 94.4472C56.8032 91.4222 57.8122 87.8931 57.8122 83.8597C57.8122 77.6977 55.6822 72.8241 51.4222 69.2389C47.1622 65.6537 41.4448 63.8611 34.2701 63.8611C29.5617 63.8611 25.4138 64.7574 21.8265 66.55C18.3512 68.2306 15.5486 70.5833 13.4186 73.6083C11.4007 76.6333 10.3918 80.1065 10.3918 84.0278C10.3918 87.613 11.3447 90.9181 13.2504 93.9431C15.1562 96.968 17.9028 99.3768 21.4902 101.169C25.1896 102.962 29.6178 103.858 34.7746 103.858Z" fill="#E51017"/>
</svg>
