<svg width="87" height="114" viewBox="0 0 87 114" fill="none" xmlns="http://www.w3.org/2000/svg">
<path d="M37.8287 124C27.8916 124 19.2681 122.507 11.958 119.522C4.64802 116.537 -1.00583 112.346 -5.0035 106.95C-9.00117 101.439 -11 95.0093 -11 87.6611C-11 80.313 -9.05827 74.113 -5.17483 69.0611C-1.29138 64.0093 4.30536 60.163 11.6154 57.5222C18.9254 54.8815 27.6632 53.5611 37.8287 53.5611C47.9942 53.5611 56.7319 54.8815 64.042 57.5222C71.4662 60.163 77.12 64.0667 81.0035 69.2333C85.0012 74.2852 87 80.4278 87 87.6611C87 95.0093 84.9441 101.439 80.8322 106.95C76.8345 112.346 71.1235 116.537 63.6993 119.522C56.3893 122.507 47.7657 124 37.8287 124ZM37.8287 106.433C46.0524 106.433 52.5629 104.711 57.3601 101.267C62.1573 97.8222 64.5559 93.0574 64.5559 86.9722C64.5559 81.0018 62.1573 76.2944 57.3601 72.85C52.5629 69.4056 46.0524 67.6833 37.8287 67.6833C29.6049 67.6833 23.1515 69.4056 18.4685 72.85C13.7855 76.2944 11.4441 81.0018 11.4441 86.9722C11.4441 93.0574 13.7855 97.8222 18.4685 101.267C23.1515 104.711 29.6049 106.433 37.8287 106.433ZM37.8287 65.2722C28.5769 65.2722 20.6387 64.0667 14.014 61.6556C7.38928 59.1296 2.24942 55.513 -1.40559 50.8056C-4.94639 45.9833 -6.71678 40.2426 -6.71678 33.5833C-6.71678 26.6944 -4.88928 20.7815 -1.23427 15.8444C2.53497 10.7926 7.78905 6.88888 14.528 4.13333C21.2669 1.37778 29.0338 0 37.8287 0C46.7378 0 54.5618 1.37778 61.3007 4.13333C68.0396 6.88888 73.2937 10.7926 77.0629 15.8444C80.8322 20.7815 82.7168 26.6944 82.7168 33.5833C82.7168 40.2426 80.8893 45.9833 77.2343 50.8056C73.6935 55.513 68.5536 59.1296 61.8147 61.6556C55.0758 64.0667 47.0804 65.2722 37.8287 65.2722ZM37.8287 51.4944C44.9103 51.4944 50.507 50.0019 54.6189 47.0167C58.7308 43.9167 60.7867 39.7833 60.7867 34.6167C60.7867 29.2204 58.6737 25.0296 54.4476 22.0444C50.2214 19.0593 44.6818 17.5667 37.8287 17.5667C30.9755 17.5667 25.493 19.0593 21.3811 22.0444C17.2692 25.0296 15.2133 29.2204 15.2133 34.6167C15.2133 39.7833 17.2121 43.9167 21.2098 47.0167C25.3217 50.0019 30.8613 51.4944 37.8287 51.4944Z" fill="#F8F8F8"/>
</svg>
