<svg width="35" height="59" viewBox="0 0 35 59" fill="none" xmlns="http://www.w3.org/2000/svg">
<path d="M10.0662 0C15.3327 0 19.8038 1.11991 23.4794 3.35972C27.2099 5.54491 30.0626 8.74074 32.0376 12.9472C34.0125 17.1537 35 22.3435 35 28.5167C35 35.0722 33.7931 40.6171 31.3792 45.1514C29.0203 49.6856 25.7287 53.1273 21.5045 55.4764C17.2803 57.8255 12.3703 59 6.7746 59C3.86702 59 1.0966 58.6995 -1.53667 58.0986C-4.16995 57.4977 -6.44663 56.569 -8.36673 55.3125L-4.41682 47.2819C-2.82588 48.3199 -1.09779 49.0574 0.767443 49.4944C2.63268 49.8768 4.55277 50.0681 6.52773 50.0681C11.9589 50.0681 16.2654 48.4019 19.4472 45.0694C22.6291 41.737 24.22 36.8204 24.22 30.3194C24.22 29.2815 24.1926 28.0796 24.1377 26.7139C24.0829 25.2935 23.8909 23.8731 23.5617 22.4528L26.8533 26.0583C25.9207 28.2981 24.5766 30.1829 22.8211 31.7125C21.0656 33.1875 19.0083 34.3074 16.6494 35.0722C14.2904 35.837 11.6846 36.2194 8.83184 36.2194C5.10137 36.2194 1.72749 35.5093 -1.2898 34.0889C-4.25224 32.6139 -6.61121 30.5653 -8.36673 27.9431C-10.1222 25.2662 -11 22.1523 -11 18.6014C-11 14.7773 -10.0674 11.4995 -8.20215 8.76805C-6.33691 5.98194 -3.81336 3.82407 -0.631485 2.29444C2.60525 0.764814 6.17114 0 10.0662 0ZM10.6422 8.35833C8.44782 8.35833 6.5003 8.76805 4.79964 9.5875C3.09899 10.3523 1.75492 11.4722 0.767443 12.9472C-0.165175 14.3676 -0.631485 16.0884 -0.631485 18.1097C-0.631485 21.1144 0.410852 23.4907 2.49553 25.2389C4.5802 26.987 7.37806 27.8611 10.8891 27.8611C13.1932 27.8611 15.223 27.4514 16.9785 26.6319C18.734 25.7579 20.1055 24.5833 21.093 23.1083C22.0805 21.5787 22.5742 19.8852 22.5742 18.0278C22.5742 16.225 22.1079 14.6134 21.1753 13.1931C20.2427 11.7181 18.8986 10.5435 17.1431 9.66945C15.3876 8.79537 13.2206 8.35833 10.6422 8.35833Z" fill="#F8F8F8"/>
</svg>
