<svg width="84" height="114" viewBox="0 0 84 114" fill="none" xmlns="http://www.w3.org/2000/svg">
<path d="M32.5063 0C43.3828 0 52.6166 2.31574 60.2075 6.94722C67.9118 11.4657 73.8032 18.0741 77.8819 26.7722C81.9606 35.4704 84 46.2018 84 58.9667C84 72.5222 81.5075 83.988 76.5224 93.3639C71.6506 102.74 64.8527 109.856 56.1288 114.714C47.4049 119.571 37.2648 122 25.7084 122C19.7036 122 13.9821 121.379 8.54383 120.136C3.10555 118.894 -1.5963 116.973 -5.56172 114.375L2.59571 97.7694C5.88133 99.9157 9.45021 101.441 13.3023 102.344C17.1544 103.135 21.1199 103.531 25.1986 103.531C36.415 103.531 45.3089 100.085 51.8801 93.1944C58.4514 86.3037 61.737 76.137 61.737 62.6944C61.737 60.5481 61.6804 58.063 61.5671 55.2389C61.4538 52.3019 61.0573 49.3648 60.3775 46.4278L67.1753 53.8833C65.2493 58.5148 62.4735 62.412 58.8479 65.575C55.2224 68.625 50.9738 70.9407 46.102 72.5222C41.2302 74.1037 35.8485 74.8944 29.9571 74.8944C22.2528 74.8944 15.285 73.4259 9.05367 70.4889C2.9356 67.4389 -1.9362 63.2028 -5.56172 57.7806C-9.18724 52.2454 -11 45.8065 -11 38.4639C-11 30.5565 -9.07394 23.7787 -5.22183 18.1306C-1.36971 12.3694 3.84198 7.9074 10.4132 4.74444C17.0978 1.58148 24.4621 0 32.5063 0ZM33.6959 17.2833C29.164 17.2833 25.1419 18.1306 21.6297 19.825C18.1175 21.4065 15.3417 23.7222 13.3023 26.7722C11.3763 29.7093 10.4132 33.2676 10.4132 37.4472C10.4132 43.6602 12.5659 48.5741 16.8712 52.1889C21.1765 55.8037 26.9547 57.6111 34.2057 57.6111C38.9642 57.6111 43.1562 56.7639 46.7818 55.0694C50.4073 53.262 53.2397 50.8333 55.2791 47.7833C57.3184 44.6204 58.3381 41.1185 58.3381 37.2778C58.3381 33.55 57.3751 30.2176 55.449 27.2806C53.523 24.2306 50.7472 21.8019 47.1216 19.9944C43.4961 18.187 39.0209 17.2833 33.6959 17.2833Z" fill="#F8F8F8"/>
</svg>
