<svg width="8" height="17" viewBox="0 0 8 17" fill="none" xmlns="http://www.w3.org/2000/svg">
<path d="M7.83429 8.0561L0.405896 0.770561C0.287613 0.656421 0.146474 0.724419 0.0641899 0.940557C0.0239264 1.04525 0.00136555 1.17563 0.000122253 1.31081C-0.00112104 1.446 0.0190252 1.57815 0.057333 1.68611L2.50013 8.60737L0.057333 15.5286C-0.0215223 15.7508 -0.0186652 16.0593 0.0636185 16.2742C0.119046 16.4211 0.201901 16.5 0.285899 16.5C0.326469 16.5 0.36704 16.4818 0.405325 16.4442L7.83372 9.15864C7.93543 9.05907 8 8.84415 8 8.60737C8 8.37059 7.93543 8.15567 7.83429 8.0561Z" fill="#006BE9"/>
</svg>
