<svg width="8" height="16" viewBox="0 0 8 16" fill="none" xmlns="http://www.w3.org/2000/svg">
<path d="M0.165711 8.4439L7.5941 15.7294C7.71239 15.8436 7.85353 15.7756 7.93581 15.5594C7.97607 15.4548 7.99863 15.3244 7.99988 15.1892C8.00112 15.054 7.98097 14.9218 7.94267 14.8139L5.49987 7.89263L7.94267 0.971373C8.02152 0.749164 8.01867 0.440742 7.93638 0.22582C7.88096 0.0788946 7.7981 -3.24426e-05 7.7141 -3.24499e-05C7.67353 -3.24535e-05 7.63296 0.0181808 7.59468 0.0558233L0.166282 7.34136C0.0645707 7.44093 1.18744e-06 7.65585 1.16674e-06 7.89263C1.14604e-06 8.12941 0.0645706 8.34433 0.165711 8.4439Z" fill="#006BE9"/>
</svg>
