<svg width="21" height="21" viewBox="0 0 21 21" fill="none" xmlns="http://www.w3.org/2000/svg">
<rect width="21" height="21" rx="10.5" fill="#E51017" fill-opacity="0.09"/>
<path d="M10.4655 9.30568L10.6423 9.48245L10.8191 9.30568L13.6107 6.51412C13.931 6.19381 14.4503 6.19381 14.7706 6.51412C15.0909 6.83443 15.0909 7.35375 14.7706 7.67406L11.979 10.4656L11.8023 10.6424L11.979 10.8192L14.7706 13.6107C15.0909 13.931 15.0909 14.4504 14.7706 14.7707C14.4503 15.091 13.931 15.091 13.6107 14.7707L10.8191 11.9791L10.6423 11.8023L10.4655 11.9791L7.67399 14.7707C7.35368 15.091 6.83436 15.091 6.51405 14.7707C6.19374 14.4504 6.19374 13.931 6.51405 13.6107L9.30561 10.8192L9.48238 10.6424L9.30561 10.4656L6.51405 7.67406C6.19374 7.35375 6.19374 6.83443 6.51405 6.51412C6.83436 6.19381 7.35368 6.19381 7.67399 6.51412L10.4655 9.30568Z" fill="#E51017" stroke="white" stroke-width="0.5"/>
</svg>
