<svg width="17" height="16" viewBox="0 0 17 16" fill="none" xmlns="http://www.w3.org/2000/svg">
<path d="M1.15744 6.78259L2.12591 6.57482C2.1343 6.57288 2.14195 6.56856 2.14796 6.56238C2.15397 6.55621 2.15808 6.54844 2.15979 6.54C2.18262 6.44047 2.2132 6.34259 2.24073 6.24447C2.40599 5.647 2.65674 5.07655 2.9852 4.55082C2.98993 4.54364 2.99249 4.53525 2.99258 4.52666C2.99266 4.51806 2.99026 4.50962 2.98567 4.50235L2.44756 3.66941C2.4292 3.64117 2.41697 3.61035 2.40991 3.57835C2.40685 3.56494 2.4085 3.55082 2.40732 3.53694C2.40591 3.52047 2.40261 3.50376 2.40426 3.48706C2.41047 3.42228 2.4388 3.36162 2.4845 3.31529L3.81532 1.98259C3.81744 1.98023 3.82003 1.97953 3.82238 1.97765L3.9092 1.89059C3.92814 1.87157 3.95303 1.85963 3.97971 1.85676C4.00639 1.85389 4.03325 1.86027 4.05579 1.87482L4.15767 1.9407C4.1612 1.94235 4.16473 1.94306 4.16779 1.9447L5.00262 2.48494C5.00803 2.4887 5.01414 2.48965 5.01979 2.49059C5.02214 2.49059 5.02426 2.492 5.02638 2.492C5.0351 2.49195 5.04365 2.4895 5.05109 2.48494C5.6625 2.10069 6.33436 1.82235 7.03838 1.66165C7.04679 1.65992 7.05452 1.6558 7.06066 1.64979C7.06679 1.64378 7.07107 1.63614 7.07297 1.62776L7.28309 0.654116C7.29692 0.591308 7.33171 0.535077 7.38174 0.494667C7.43178 0.454257 7.49407 0.432073 7.55838 0.431763H9.44026C9.47297 0.431763 9.5052 0.43788 9.53509 0.448469C9.55579 0.456233 9.57367 0.468469 9.59156 0.480704C9.60003 0.48588 9.60944 0.488704 9.6172 0.494821C9.62544 0.50188 9.63132 0.511998 9.63909 0.519998C9.67702 0.5564 9.70365 0.602965 9.71579 0.654116L9.92544 1.62776C9.92736 1.63617 9.93167 1.64384 9.93785 1.64985C9.94402 1.65586 9.95181 1.65996 9.96026 1.66165C10.1414 1.70282 10.325 1.75341 10.505 1.81176C10.5111 1.81365 10.5163 1.81835 10.5219 1.82117C10.866 1.93346 11.1999 2.07475 11.52 2.24353C11.5271 2.24541 11.5341 2.24588 11.5405 2.24964C11.6791 2.32259 11.8165 2.40188 11.9497 2.48494C11.9567 2.48966 11.965 2.4922 11.9735 2.49224C11.982 2.49228 11.9903 2.48982 11.9974 2.48517L12.8304 1.94517C12.8334 1.94329 12.837 1.94282 12.8403 1.94094L12.9419 1.87506C12.9645 1.86044 12.9914 1.854 13.0182 1.85683C13.0449 1.85965 13.0699 1.87157 13.089 1.89059L13.1758 1.97717C13.1777 1.97906 13.1807 1.98023 13.1833 1.98212L14.5151 3.31459C14.5612 3.36071 14.5898 3.42144 14.596 3.48635C14.6029 3.55053 14.5877 3.61513 14.5527 3.66941L14.0127 4.50423C14.008 4.51129 14.0061 4.51929 14.0057 4.52729C14.0061 4.53552 14.0085 4.54351 14.0127 4.55059C14.1639 4.79598 14.2988 5.05104 14.4165 5.31412C14.4469 5.38047 14.4807 5.44541 14.509 5.51317C14.6466 5.84549 14.756 6.18883 14.836 6.53953C14.8377 6.54801 14.8418 6.55583 14.8478 6.56205C14.8538 6.56827 14.8615 6.57262 14.8699 6.57459L15.8429 6.78235C15.9718 6.80988 16.0657 6.92588 16.0657 7.05788V8.94164C16.0657 9.07388 15.9718 9.18965 15.8429 9.21694L14.8701 9.42494C14.8617 9.42683 14.8541 9.43109 14.848 9.43723C14.842 9.44336 14.8378 9.4511 14.836 9.45953C14.7956 9.63576 14.7483 9.80917 14.6934 9.98094C14.6826 10.0158 14.6676 10.0492 14.6563 10.0838C14.6104 10.2191 14.5633 10.3544 14.509 10.4861C14.4859 10.5421 14.4572 10.5955 14.4325 10.6506C14.3112 10.9261 14.1709 11.1928 14.0127 11.4489C14.0083 11.456 14.0064 11.4638 14.0061 11.4718C14.0061 11.4799 14.0084 11.4879 14.0127 11.4948L14.5527 12.3301C14.5878 12.3845 14.6031 12.4493 14.596 12.5136C14.5894 12.5769 14.5624 12.6381 14.5156 12.6847L13.1831 14.0176C13.1803 14.02 13.177 14.0212 13.1746 14.0231L13.089 14.1089C13.0699 14.1279 13.0449 14.1398 13.0181 14.1426C12.9914 14.1454 12.9645 14.1389 12.9419 14.1242L12.8412 14.0593C12.8377 14.0569 12.8337 14.0569 12.8304 14.0546L11.9974 13.5139C11.9902 13.5093 11.9819 13.5069 11.9733 13.5071C11.9648 13.5072 11.9565 13.5098 11.9494 13.5146C11.816 13.5979 11.6796 13.6764 11.5405 13.7499C11.5344 13.7534 11.5271 13.7541 11.52 13.7565C11.1998 13.9249 10.8659 14.066 10.5219 14.1781C10.5163 14.1812 10.5116 14.1856 10.5052 14.1875C10.3269 14.2456 10.1433 14.2958 9.96026 14.3379C9.9518 14.3395 9.944 14.3436 9.93781 14.3496C9.93163 14.3557 9.92733 14.3633 9.92544 14.3718L9.71556 15.3449C9.71085 15.3664 9.7005 15.3849 9.69179 15.4038C9.68709 15.4139 9.6852 15.4249 9.67932 15.4341C9.67226 15.4452 9.66214 15.4529 9.65391 15.4631C9.64167 15.4772 9.63109 15.4929 9.61697 15.5047C9.60991 15.5104 9.60097 15.5127 9.59344 15.5181C9.57462 15.5304 9.55603 15.5433 9.53509 15.5511C9.5052 15.5616 9.47297 15.5675 9.44026 15.5675H7.55838C7.42662 15.5675 7.31085 15.4741 7.28285 15.3449L7.07297 14.3718C7.07111 14.3634 7.06688 14.3558 7.06079 14.3498C7.05469 14.3437 7.04699 14.3396 7.03862 14.3379C6.33273 14.1767 5.66426 13.8993 5.05109 13.5146C5.04391 13.5098 5.0355 13.5073 5.02689 13.5072C5.01828 13.5072 5.00984 13.5097 5.00262 13.5144L4.16803 14.0544C4.1652 14.0562 4.16167 14.0567 4.15838 14.0586L4.05579 14.1245C4.03327 14.1391 4.00643 14.1455 3.97975 14.1426C3.95307 14.1398 3.92817 14.1279 3.9092 14.1089L3.82285 14.0224C3.8205 14.02 3.81744 14.0193 3.81532 14.0169L2.48473 12.6847C2.41367 12.6132 2.38779 12.5132 2.41038 12.4202C2.41731 12.3882 2.42998 12.3576 2.44779 12.3301L2.98591 11.4972C2.98779 11.4944 2.98779 11.4906 2.98897 11.4871C2.99124 11.4808 2.9921 11.4742 2.99149 11.4676C2.99088 11.461 2.98881 11.4546 2.98544 11.4489C2.63451 10.8882 2.37236 10.2766 2.20826 9.63576C2.19297 9.57694 2.17344 9.51929 2.16003 9.46C2.15842 9.45152 2.15439 9.44369 2.14841 9.43747C2.14244 9.43124 2.13478 9.42689 2.12638 9.42494L1.1572 9.21717C1.0285 9.18917 0.934615 9.07364 0.934615 8.94188V7.05788C0.934615 6.92612 1.0285 6.81012 1.15744 6.78259ZM4.72944 11.1828C5.19254 11.7315 5.7698 12.1724 6.42093 12.475C7.07205 12.7775 7.78135 12.9343 8.49932 12.9344C9.21706 12.935 9.92627 12.7787 10.5773 12.4765C11.2283 12.1744 11.8054 11.7335 12.2683 11.1849C13.0209 10.2942 13.4338 9.16569 13.4339 7.99953C13.4339 5.28 11.22 3.06682 8.49932 3.06682C5.77932 3.06682 3.56638 5.28 3.56638 7.99953C3.5658 9.16478 3.97783 10.2924 4.72944 11.1828Z" fill="#006BE9"/>
<g filter="url(#filter0_i_8_4504)">
<circle cx="8.5" cy="8" r="5" fill="#006BE9" fill-opacity="0.56"/>
</g>
<path d="M7.64049 9C7.90175 9.13722 8.19911 9.20956 8.50195 9.20956C8.80479 9.20956 9.10216 9.13722 9.36341 9C9.72187 9.08616 10.0611 9.2269 10.3663 9.41608C10.3683 9.41783 10.3702 9.41958 10.3741 9.42133L10.8854 9.81294C11.1395 10.0526 11.3472 10.3285 11.5 10.6294C11.4454 10.6958 11.3888 10.7605 11.3283 10.8234C10.6239 11.5717 9.59171 12 8.50098 12C7.41024 12 6.38 11.5699 5.67171 10.8217C5.61122 10.757 5.55502 10.6923 5.5 10.6241C5.91171 9.81643 6.69805 9.22552 7.64049 9Z" fill="white"/>
<path d="M8.50013 9C7.39698 9 6.5 8.10276 6.5 6.99987C6.5 5.89724 7.39698 5 8.50013 5C9.60302 5 10.5 5.89724 10.5 6.99961C10.5 8.10276 9.60302 9 8.50013 9Z" fill="white"/>
<defs>
<filter id="filter0_i_8_4504" x="3.5" y="3" width="10" height="12" filterUnits="userSpaceOnUse" color-interpolation-filters="sRGB">
<feFlood flood-opacity="0" result="BackgroundImageFix"/>
<feBlend mode="normal" in="SourceGraphic" in2="BackgroundImageFix" result="shape"/>
<feColorMatrix in="SourceAlpha" type="matrix" values="0 0 0 0 0 0 0 0 0 0 0 0 0 0 0 0 0 0 127 0" result="hardAlpha"/>
<feOffset dy="2"/>
<feGaussianBlur stdDeviation="2"/>
<feComposite in2="hardAlpha" operator="arithmetic" k2="-1" k3="1"/>
<feColorMatrix type="matrix" values="0 0 0 0 0 0 0 0 0 0 0 0 0 0 0 0 0 0 0.15 0"/>
<feBlend mode="normal" in2="shape" result="effect1_innerShadow_8_4504"/>
</filter>
</defs>
</svg>
