<svg width="23" height="18" viewBox="0 0 23 18" fill="none" xmlns="http://www.w3.org/2000/svg">
<path d="M20.625 1.875C21.875 3.25 22.625 4.75 22.625 7.25C22.625 11.625 19.5 15.5 15.125 17.5L14 15.875C18.125 13.625 19 10.75 19.25 8.875C18.625 9.25 17.75 9.375 16.875 9.25C14.625 9 12.875 7.25 12.875 4.875C12.875 3.75 13.375 2.625 14.125 1.75C15 0.875 16 0.5 17.25 0.5C18.625 0.5 19.875 1.125 20.625 1.875ZM8.125 1.875C9.375 3.25 10.125 4.75 10.125 7.25C10.125 11.625 7 15.5 2.625 17.5L1.5 15.875C5.625 13.625 6.5 10.75 6.75 8.875C6.125 9.25 5.25 9.375 4.375 9.25C2.125 9 0.375 7.125 0.375 4.875C0.375 3.75 0.875 2.625 1.625 1.75C2.5 0.875 3.5 0.5 4.75 0.5C6.125 0.5 7.375 1.125 8.125 1.875Z" fill="#006BE9"/>
</svg>
